<?xml version="1.0" standalone="no"?><!DOCTYPE svg PUBLIC "-//W3C//DTD SVG 1.1//EN" "http://www.w3.org/Graphics/SVG/1.1/DTD/svg11.dtd"><svg t="1559307790861" class="icon" style="" viewBox="0 0 1024 1024" version="1.1" xmlns="http://www.w3.org/2000/svg" p-id="1781" xmlns:xlink="http://www.w3.org/1999/xlink" width="200" height="200"><defs><style type="text/css"></style></defs><path d="M1015.668364 198.260364a37.678545 37.678545 0 0 0-29.649455-14.266182H203.706182l-32.861091-153.6A37.073455 37.073455 0 0 0 134.353455 1.349818H37.957818a36.910545 36.910545 0 0 0-37.306182 36.538182c0 20.177455 16.686545 36.468364 37.282909 36.468364l57.274182-0.325819 142.242909 664.901819A37.12 37.12 0 0 0 273.896727 768l570.670546 0.349091a36.887273 36.887273 0 0 0 37.329454-36.538182 36.817455 36.817455 0 0 0-37.329454-36.491636H313.041455l-23.389091-109.614546h606.254545a37.166545 37.166545 0 0 0 36.026182-27.042909l90.065454-328.704a35.863273 35.863273 0 0 0-6.330181-31.697454zM358.609455 819.479273a102.376727 102.376727 0 0 0-102.260364 102.260363 102.4 102.4 0 0 0 102.260364 102.283637 102.4 102.4 0 0 0 102.260363-102.283637 102.4 102.4 0 0 0-102.260363-102.260363z m0 143.150545a40.913455 40.913455 0 1 1 0.046545-81.826909 40.913455 40.913455 0 0 1-0.046545 81.826909z m409.041454-143.150545a102.376727 102.376727 0 0 0-102.260364 102.260363c0 56.389818 45.870545 102.283636 102.260364 102.283637s102.283636-45.893818 102.283636-102.283637a102.4 102.4 0 0 0-102.283636-102.260363z m0 143.150545a40.913455 40.913455 0 1 1 0.046546-81.826909 40.913455 40.913455 0 0 1-0.046546 81.826909z m0 0" p-id="1782"></path></svg>